<?xml version="1.0" standalone="no"?>
<!DOCTYPE svg PUBLIC "-//W3C//DTD SVG 20010904//EN"
 "http://www.w3.org/TR/2001/REC-SVG-20010904/DTD/svg10.dtd">
<svg version="1.0" xmlns="http://www.w3.org/2000/svg"
 width="1424.000000pt" height="1424.000000pt" viewBox="0 0 1424.000000 1424.000000"
 preserveAspectRatio="xMidYMid meet">
<metadata>
Created by potrace 1.11, written by Peter Selinger 2001-2013
</metadata>
<g transform="translate(0.000000,1424.000000) scale(0.100000,-0.100000)"
fill="#000000" stroke="none">
<path d="M2359 8408 c-81 -29 -165 -90 -211 -155 -66 -93 -79 -140 -84 -296
-2 -70 -6 -132 -9 -137 -4 -6 -3 -10 2 -10 10 0 9 -453 -1 -469 -4 -6 -4 -11
1 -11 10 0 9 -453 -1 -469 -4 -6 -3 -11 1 -11 5 0 8 -38 7 -85 l-3 -85 112
-80 c62 -45 119 -86 127 -93 8 -7 39 -28 67 -47 l52 -35 1 -60 c0 -33 1 -175
1 -316 l0 -256 75 1 c41 0 75 3 75 6 1 3 2 143 3 313 l1 307 158 114 c87 63
168 122 180 133 l22 19 -1 689 c-1 380 -4 699 -7 710 -41 153 -136 263 -277
319 -27 11 -81 20 -135 23 -76 3 -101 0 -156 -19z m256 -157 c51 -23 108 -78
136 -133 10 -21 19 -39 19 -42 0 -3 -61 -67 -136 -142 l-136 -137 -134 134
c-73 74 -134 141 -134 150 0 20 50 98 86 131 71 65 201 82 299 39z m-378 -403
c5 -7 66 -69 136 -138 l126 -124 136 137 c75 75 138 137 141 137 2 0 4 -43 4
-95 l0 -95 -141 -141 -142 -140 -138 142 c-77 78 -139 145 -140 148 -1 3 -2
45 -3 94 -1 84 4 101 21 75z m188 -694 c0 -52 0 -94 -2 -94 -1 0 -48 45 -103
100 l-100 100 0 95 0 96 102 -101 102 -101 1 -95z m353 201 l2 -95 -95 -95
c-52 -52 -98 -95 -103 -95 -4 0 -8 39 -7 87 l1 88 99 102 c55 56 100 103 101
103 1 0 2 -43 2 -95z m-358 -544 c-5 -10 -7 -21 -3 -24 7 -8 8 -156 0 -163 -4
-5 -85 48 -172 112 l-28 21 -2 134 c-1 74 0 137 2 141 2 4 51 -40 109 -98 87
-88 103 -108 94 -123z m360 189 c3 -143 -1 -250 -9 -250 -5 0 -16 -6 -23 -13
-7 -7 -42 -33 -78 -57 -36 -25 -69 -51 -73 -58 -17 -26 -22 0 -22 107 l0 110
100 100 c55 55 101 99 102 97 1 -1 2 -17 3 -36z"/>
<path d="M9918 7757 c-2 -32 0 -61 5 -64 4 -2 5 -8 2 -13 -4 -7 -6 -66 -4
-110 1 -19 0 -189 -1 -215 -2 -27 -2 -32 -1 -90 0 -27 0 -57 -1 -65 -1 -15 8
-118 16 -175 11 -76 69 -211 123 -283 71 -95 193 -178 289 -197 51 -10 148 -6
201 8 97 26 244 136 284 214 8 15 16 30 20 33 13 12 68 144 74 179 3 14 8 37
12 51 3 14 8 196 10 405 l3 380 -80 1 -80 0 0 -41 c0 -22 -1 -181 -1 -354 -1
-239 -5 -328 -16 -375 -8 -33 -16 -65 -17 -71 -8 -42 -62 -131 -107 -176 -73
-75 -135 -103 -219 -102 -80 1 -85 2 -140 35 -69 40 -160 150 -160 194 0 8 -5
14 -12 14 -6 0 -8 3 -5 6 3 4 2 14 -2 23 -16 30 -23 85 -26 213 -1 69 -5 130
-8 135 -3 5 -2 14 1 21 7 9 7 68 1 98 -1 5 -1 11 0 14 6 16 5 190 -1 190 -4 0
-4 10 0 23 9 26 8 80 -2 95 -3 6 -2 13 4 17 7 4 7 12 1 23 -7 13 -26 17 -84
18 l-75 1 -4 -60z"/>
<path d="M3703 7167 l0 -637 321 2 321 3 0 68 c0 37 -2 72 -5 77 -3 6 -107 11
-240 12 l-235 3 -1 535 c-1 294 -2 544 -3 556 -1 19 -7 20 -79 20 l-79 -1 0
-638z"/>
<path d="M4711 7784 c-86 -26 -149 -62 -201 -115 -40 -40 -100 -121 -100 -134
0 -4 -7 -21 -15 -38 -8 -18 -18 -51 -23 -74 -11 -46 -9 -174 2 -213 25 -87 77
-175 141 -236 43 -40 145 -101 185 -110 11 -2 30 -7 43 -10 38 -10 150 -11
197 -1 279 58 451 356 358 622 -39 113 -139 230 -238 277 -114 55 -236 66
-349 32z m199 -148 c14 -2 46 -13 71 -25 163 -77 227 -272 143 -435 -88 -169
-303 -221 -461 -112 -121 83 -167 229 -118 375 29 87 136 180 226 196 18 3 35
7 36 9 3 3 66 -2 103 -8z"/>
<path d="M5874 7786 c-133 -43 -247 -122 -332 -232 -31 -40 -82 -135 -86 -158
-1 -6 -4 -15 -7 -21 -26 -44 -40 -204 -26 -295 13 -89 25 -125 64 -200 72
-136 200 -256 313 -295 3 -1 18 -7 34 -14 76 -31 307 -53 322 -30 3 5 9 7 14
4 13 -8 129 32 188 64 28 16 52 26 53 23 0 -4 1 -29 2 -56 l2 -49 68 -1 c38
-1 74 2 79 5 11 7 19 453 8 468 -6 8 -579 11 -581 2 -7 -33 -3 -151 6 -154 5
-2 101 -3 213 -2 111 0 202 0 202 -1 0 0 -10 -13 -22 -27 -39 -44 -145 -107
-181 -107 -9 0 -18 -4 -21 -8 -5 -8 -49 -14 -126 -16 -83 -2 -223 45 -280 94
-14 12 -30 25 -35 28 -14 9 -87 101 -103 131 -46 82 -66 200 -50 290 5 26 9
53 9 61 1 8 16 47 35 85 45 96 109 161 210 217 30 16 54 26 54 23 0 -3 10 0
22 6 56 30 210 31 288 2 8 -3 21 -7 28 -9 22 -4 120 -66 153 -96 35 -32 37
-31 111 37 l41 39 -59 53 c-66 61 -135 101 -227 133 -95 34 -286 37 -383 6z"/>
<path d="M7096 7803 c-2 -2 -19 -7 -38 -9 -61 -10 -174 -72 -230 -126 -30 -30
-70 -84 -91 -125 -21 -40 -36 -73 -34 -73 3 0 -1 -19 -8 -42 -26 -89 -6 -237
46 -338 32 -61 133 -162 197 -194 263 -133 581 -8 678 267 100 284 -90 593
-391 634 -55 7 -124 10 -129 6z m196 -191 c26 -11 66 -37 88 -58 40 -37 92
-127 96 -168 16 -130 -7 -205 -90 -290 -63 -64 -123 -89 -211 -89 -182 1 -324
132 -328 301 -1 78 4 105 31 158 38 74 124 145 200 164 57 14 161 6 214 -18z"/>
<path d="M7819 7805 c-1 0 -3 -286 -4 -636 l-1 -636 78 -2 c75 -2 78 -1 79 21
4 80 3 1241 -1 1247 -4 4 -135 10 -151 6z"/>
<path d="M8199 7805 c-1 0 -2 -287 -3 -637 l-1 -638 80 0 81 0 0 158 -1 157
79 2 c123 2 225 41 314 119 234 205 213 583 -43 756 -49 33 -119 65 -165 74
-24 5 -309 13 -341 9z m311 -171 c29 -9 65 -23 79 -32 63 -39 132 -134 147
-203 32 -148 -59 -315 -199 -367 -65 -25 -172 -30 -179 -9 -2 6 -3 146 -3 310
1 248 4 300 16 308 22 13 79 11 139 -7z"/>
<path d="M9163 7778 c-145 -54 -230 -234 -173 -366 44 -101 143 -163 288 -178
141 -15 235 -46 294 -94 52 -43 73 -91 73 -170 0 -165 -139 -291 -315 -285
-69 2 -123 19 -178 57 -28 19 -47 27 -55 21 -7 -5 -34 -26 -60 -47 l-48 -38
23 -20 c13 -10 32 -27 43 -36 90 -75 275 -109 405 -73 186 52 337 235 343 416
2 44 -13 128 -25 143 -6 6 -8 12 -4 12 8 0 -37 72 -66 105 -36 41 -119 93
-190 119 -38 13 -68 23 -68 21 0 -2 -17 1 -37 6 -21 5 -60 12 -88 15 -27 3
-61 7 -75 9 -76 9 -123 54 -123 119 0 116 125 188 228 130 44 -24 39 -26 113
35 l41 35 -37 26 c-65 45 -104 58 -182 58 -50 0 -92 -6 -127 -20z"/>
<path d="M11119 7798 c-5 -17 -3 -58 4 -58 4 0 5 -5 2 -10 -5 -9 -9 -889 -6
-1152 l1 -48 79 0 c69 0 80 2 80 18 0 9 0 100 0 202 0 102 0 191 1 198 0 6 0
18 0 25 1 6 -1 29 -2 50 -2 20 -1 37 2 37 6 0 3 88 -4 106 -3 8 -2 14 2 14 9
0 8 47 0 56 -4 3 -2 18 2 34 4 16 6 31 2 34 -3 3 -1 6 4 6 8 0 148 -179 179
-227 6 -9 17 -23 25 -32 8 -9 46 -58 84 -108 38 -50 74 -89 80 -87 6 3 27 28
46 56 19 27 42 57 50 67 9 9 36 43 60 76 56 74 189 247 200 258 4 5 8 -153 8
-350 0 -197 1 -374 1 -394 l1 -36 78 1 77 1 1 628 c0 345 -2 627 -6 627 -6 0
-28 -26 -45 -53 -5 -8 -66 -89 -135 -179 -116 -152 -232 -305 -283 -372 -12
-16 -31 -39 -42 -52 l-21 -24 -14 21 c-52 73 -184 245 -191 247 -5 2 -9 10 -9
17 0 7 -3 15 -7 17 -8 3 -177 222 -198 255 -5 9 -20 27 -33 41 -12 14 -32 40
-43 59 -18 29 -27 38 -30 31z"/>
<path d="M4522 6609 l-1 -79 321 2 322 3 0 75 1 75 -321 2 -321 2 -1 -80z"/>
<path d="M6846 6680 c-3 -5 -1 -140 2 -150 1 -3 144 -5 317 -5 173 0 315 2
316 5 4 22 3 143 -1 149 -6 8 -630 9 -634 1z"/>
</g>
</svg>
